# xmcd CD database file
#
# Track frame offsets:
#	150
#	1173
#	9422
#	17802
#	24158
#	30284
#	47915
#	62575
#	78468
#	93195
#	103866
#	114993
#	146042
#	155299
#	169476
#	177246
#	189882
#	199975
#	209403
#
# Disc length: 2876 seconds
#
# Revision: 0
# Processed by: cddbd v1.5PL3 Copyright (c) Steve Scherf et al.
# Submitted via: CDex 1.51
#
DISCID=eb0b3a13
DTITLE=John Thomas - Voice Leading for Guitar
DYEAR=2002
DGENRE=Jazz
TTITLE0=Tuning Note(A 440Hz)
TTITLE1=Chapter2 Ex.1
TTITLE2=Chapter3 Ex.1
TTITLE3=Chapter2 Ex.2
TTITLE4=Chapter3 Ex.2
TTITLE5=All The Things You'll Never Be
TTITLE6=Spring Arrives(Medium)Comping Rhythm No.2
TTITLE7=Dear Old Stockmarket(Medium)Comping Rhythm No.4
TTITLE8=I Smell Catastrophe(Medium)Comping Rhythm No.3
TTITLE9=Turn On Your Headlight(Bounce)Comping Rhythm No.5
TTITLE10=If I Knew How To Cook(Bounce)Comping Rhythm No.3
TTITLE11=I Never Thought About You(Ballad)Comping Rhythm No.12
TTITLE12=Rambo's Chin(Manbo)Comping Rhythm No.11
TTITLE13=O Great Love(Bossa)Comping Rhythm No.9
TTITLE14=Remember Me(Samba)Comping Rhythm No.10
TTITLE15=Rhythm Changes(Medium Fast)Mixed Comping Rhythms
TTITLE16=Rhythm Changes(Very Fast)Mixed Comping Rhythms
TTITLE17=Blues in "F"(Medium)Student Choice
TTITLE18=Blues in "F"(Bounce)Comping Rhythm No.2
EXTD=YEAR: 2002
EXTT0=
EXTT1=
EXTT2=
EXTT3=
EXTT4=
EXTT5=
EXTT6=
EXTT7=
EXTT8=
EXTT9=
EXTT10=
EXTT11=
EXTT12=
EXTT13=
EXTT14=
EXTT15=
EXTT16=
EXTT17=
EXTT18=
PLAYORDER=
